{"glyphs":{":":{"x_min":0,"x_max":550,"ha":550,"o":"m 275 499 q 290 499 304 493 q 317 487 328 477 q 338 466 344 453 q 350 439 350 424 q 350 408 344 395 q 338 381 328 371 q 317 361 304 355 q 290 349 275 349 q 259 349 246 355 q 232 361 222 371 q 212 381 206 395 q 200 408 200 424 q 200 439 206 453 q 212 466 222 477 q 232 487 246 493 q 259 499 275 499 z m 275 141 q 290 141 304 135 q 317 129 328 119 q 338 108 344 95 q 350 81 350 66 q 350 50 344 37 q 338 23 328 13 q 317 3 304 -3 q 290 -9 275 -9 q 259 -9 246 -3 q 232 3 222 13 q 212 23 206 37 q 200 50 200 66 q 200 81 206 95 q 212 108 222 119 q 232 129 246 135 q 259 141 275 141 z"},"$":{"x_min":0,"x_max":550,"ha":550,"o":"m 289 730 l 360 730 l 347 635 q 373 632 398 628 q 424 625 446 619 l 446 544 q 419 551 392 556 q 364 561 338 563 l 310 354 q 343 341 375 326 q 407 312 433 291 q 458 271 474 243 q 490 215 490 177 q 490 136 474 104 q 457 72 427 50 q 397 28 355 16 q 313 3 263 1 l 247 -115 l 176 -115 l 192 1 q 152 4 116 10 q 81 15 54 22 l 54 103 q 85 92 121 85 q 158 79 202 76 l 231 296 q 199 308 168 322 q 138 336 114 356 q 89 376 74 403 q 59 430 59 467 q 59 497 72 527 q 84 556 111 580 q 138 604 179 619 q 220 634 277 637 z m 267 564 q 206 559 178 535 q 150 512 150 476 q 150 442 173 421 q 196 399 242 381 z m 273 76 q 339 81 369 105 q 399 130 399 172 q 399 189 393 203 q 386 217 374 229 q 361 240 342 250 q 323 259 298 269 z"},"?":{"x_min":0,"x_max":550,"ha":550,"o":"m 450 473 q 450 394 406 353 q 362 312 279 307 l 275 187 l 202 187 l 196 374 l 253 374 q 283 374 303 380 q 323 387 335 398 q 347 410 353 427 q 358 444 358 465 q 358 500 343 528 q 329 556 302 575 q 276 594 240 604 q 203 614 160 614 l 148 614 l 148 690 l 161 690 q 210 690 251 681 q 292 671 324 656 q 356 640 380 618 q 403 597 419 573 q 435 549 443 523 q 450 498 450 473 z m 238 120 q 251 120 263 115 q 275 110 283 101 q 292 92 297 80 q 302 68 302 55 q 302 42 297 30 q 292 19 283 10 q 275 1 263 -4 q 251 -9 238 -9 q 225 -9 213 -4 q 201 1 192 10 q 184 19 179 30 q 174 42 174 55 q 174 68 179 80 q 184 92 192 101 q 201 110 213 115 q 225 120 238 120 z"},"<":{"x_min":0,"x_max":550,"ha":550,"o":"m 448 46 l 395 -8 l 67 266 l 395 540 l 448 486 l 182 267 z"},"'":{"x_min":0,"x_max":550,"ha":550,"o":"m 331 690 l 317 461 l 233 461 l 219 690 z"},"=":{"x_min":0,"x_max":550,"ha":550,"o":"m 485 315 l 65 315 l 65 387 l 485 387 z m 485 146 l 65 146 l 65 217 l 485 217 z"},"a":{"x_min":0,"x_max":550,"ha":550,"o":"m 393 0 l 391 66 q 351 26 310 9 q 269 -9 223 -9 q 181 -9 151 2 q 122 13 102 31 q 83 50 74 76 q 65 101 65 131 q 65 205 120 246 q 175 288 282 288 l 384 288 l 384 331 q 384 375 356 401 q 328 427 271 427 q 229 427 189 417 q 149 408 106 391 l 106 468 q 122 474 142 479 q 162 485 184 489 q 206 494 229 496 q 253 499 278 499 q 322 499 358 489 q 394 479 418 459 q 443 439 456 409 q 469 379 469 338 l 469 0 z m 384 223 l 276 223 q 244 223 221 217 q 198 210 184 199 q 169 187 162 171 q 155 154 155 134 q 155 120 159 107 q 164 94 173 84 q 183 74 199 68 q 214 62 237 62 q 266 62 304 80 q 342 98 384 136 z"},"L":{"x_min":0,"x_max":550,"ha":550,"o":"m 481 0 l 114 0 l 114 638 l 202 638 l 202 74 l 481 74 z"},"3":{"x_min":0,"x_max":550,"ha":550,"o":"m 480 194 q 480 152 463 115 q 446 78 412 51 q 377 23 326 7 q 274 -9 205 -9 q 167 -9 137 -6 q 106 -4 80 0 l 80 76 q 110 71 144 68 q 178 65 213 65 q 261 65 295 73 q 329 82 350 98 q 372 114 381 137 q 391 160 391 189 q 391 215 379 235 q 368 254 346 268 q 325 281 296 287 q 266 294 231 294 l 158 294 l 158 364 l 232 364 q 261 364 284 371 q 308 379 325 393 q 342 407 351 428 q 360 449 360 475 q 360 526 329 550 q 297 573 237 573 q 205 573 170 567 q 136 561 97 548 l 97 622 q 114 628 133 633 q 151 637 170 640 q 189 644 208 645 q 226 647 243 647 q 294 647 333 636 q 371 625 397 604 q 423 584 436 555 q 449 525 449 489 q 449 434 421 397 q 393 360 344 338 q 369 334 393 322 q 417 311 437 292 q 456 274 468 249 q 480 224 480 194 z"},";":{"x_min":0,"x_max":550,"ha":550,"o":"m 122 -100 q 147 -101 170 -96 q 194 -90 212 -80 q 229 -69 240 -54 q 251 -38 251 -18 q 251 2 244 15 q 237 28 228 39 q 219 49 212 62 q 205 74 205 94 q 205 104 209 116 q 213 127 221 136 q 229 146 241 151 q 254 157 271 157 q 288 157 304 150 q 320 143 332 128 q 344 114 351 92 q 358 70 358 40 q 358 0 343 -38 q 328 -75 299 -104 q 269 -133 225 -150 q 181 -167 122 -167 z m 275 499 q 290 499 304 493 q 317 487 328 477 q 338 466 344 453 q 350 439 350 424 q 350 408 344 395 q 338 381 328 371 q 317 361 304 355 q 290 349 275 349 q 259 349 246 355 q 232 361 222 371 q 212 381 206 395 q 200 408 200 424 q 200 439 206 453 q 212 466 222 477 q 232 487 246 493 q 259 499 275 499 z"},"J":{"x_min":0,"x_max":550,"ha":550,"o":"m 428 638 l 428 195 q 428 154 416 117 q 404 80 379 53 q 354 25 316 9 q 279 -7 228 -7 q 209 -7 189 -4 q 169 -1 151 3 q 133 8 117 14 q 101 21 89 29 l 89 116 q 119 94 156 82 q 193 69 229 69 q 282 69 311 101 q 340 134 340 195 l 340 563 l 97 563 l 97 638 z"},"V":{"x_min":0,"x_max":550,"ha":550,"o":"m 548 638 l 331 0 l 214 0 l 2 638 l 100 638 l 238 208 l 277 82 l 317 208 l 455 638 z"},"\"":{"x_min":0,"x_max":550,"ha":550,"o":"m 234 690 l 220 461 l 140 461 l 126 690 z m 424 690 l 410 461 l 330 461 l 316 690 z"},"7":{"x_min":0,"x_max":550,"ha":550,"o":"m 489 559 l 221 0 l 124 0 l 402 559 l 57 559 l 57 638 l 489 638 z"},"S":{"x_min":0,"x_max":550,"ha":550,"o":"m 487 173 q 487 127 468 93 q 450 59 417 36 q 383 14 337 2 q 290 -9 234 -9 q 208 -9 183 -7 q 158 -5 135 -2 q 112 1 91 5 q 71 9 54 13 l 54 97 q 91 83 136 76 q 182 68 240 68 q 282 68 312 74 q 341 81 360 94 q 379 107 387 125 q 396 144 396 168 q 396 194 382 212 q 367 230 344 245 q 320 259 290 271 q 260 283 229 296 q 198 309 168 323 q 138 338 114 359 q 91 379 76 406 q 62 434 62 471 q 62 504 76 536 q 89 567 118 592 q 147 617 192 632 q 237 647 300 647 q 316 647 335 646 q 354 644 373 641 q 392 639 411 635 q 430 632 446 628 l 446 550 q 408 561 371 566 q 333 572 298 572 q 223 572 188 547 q 153 522 153 480 q 153 454 167 436 q 182 417 205 402 q 229 388 259 376 q 289 364 320 351 q 351 338 381 323 q 411 308 435 287 q 458 267 472 239 q 487 211 487 173 z"},"}":{"x_min":0,"x_max":550,"ha":550,"o":"m 112 707 l 148 707 q 242 707 288 663 q 334 619 334 529 l 334 416 q 334 392 339 373 q 345 354 358 342 q 372 329 394 322 q 417 315 450 315 l 471 315 l 471 247 l 450 247 q 415 247 392 241 q 369 235 356 223 q 344 211 339 193 q 334 174 334 149 l 334 -22 q 334 -63 324 -96 q 314 -129 292 -152 q 271 -175 235 -188 q 199 -200 148 -200 l 112 -200 l 112 -132 l 141 -132 q 254 -132 254 -22 l 254 147 q 254 266 357 281 q 253 292 253 415 l 253 527 q 253 639 141 639 l 112 639 z"},"Z":{"x_min":0,"x_max":550,"ha":550,"o":"m 489 570 l 163 81 l 495 81 l 495 0 l 54 0 l 54 65 l 382 559 l 63 559 l 63 638 l 489 638 z"},"x":{"x_min":0,"x_max":550,"ha":550,"o":"m 520 0 l 407 0 l 275 187 l 144 0 l 34 0 l 224 246 l 43 490 l 152 490 l 281 302 l 407 490 l 512 490 l 328 244 z"},")":{"x_min":0,"x_max":550,"ha":550,"o":"m 178 727 q 403 519 403 263 q 403 210 393 154 q 382 97 356 38 q 330 -21 286 -83 q 243 -144 176 -205 l 127 -155 q 222 -61 269 42 q 316 145 316 257 q 316 489 127 675 z"},"&":{"x_min":0,"x_max":550,"ha":550,"o":"m 500 333 q 500 269 487 217 q 475 165 451 123 l 550 0 l 437 0 l 394 53 q 359 24 317 9 q 274 -7 224 -7 q 177 -7 140 6 q 104 20 79 43 q 54 67 41 100 q 28 132 28 172 q 28 209 38 238 q 47 267 64 290 q 81 312 102 330 q 124 347 148 362 l 137 377 q 110 411 96 445 q 83 480 83 513 q 83 548 94 578 q 105 608 127 630 q 149 651 181 664 q 213 676 254 676 q 293 676 323 665 q 353 653 373 634 q 393 614 403 589 q 413 563 413 534 q 413 498 401 470 q 388 442 368 421 q 348 400 322 383 q 295 367 268 351 l 394 194 q 416 251 414 333 z m 116 182 q 116 156 125 135 q 133 113 148 98 q 164 83 186 74 q 208 66 236 66 q 299 66 347 113 l 192 307 q 175 296 161 283 q 147 271 137 255 q 127 240 122 222 q 116 204 116 182 z m 327 526 q 327 562 307 583 q 286 604 251 604 q 231 604 217 598 q 202 591 191 580 q 181 569 176 554 q 171 539 171 521 q 171 495 181 472 q 190 449 212 422 l 225 405 q 246 417 265 428 q 283 440 297 455 q 311 469 319 487 q 327 504 327 526 z"},"_":{"x_min":0,"x_max":550,"ha":550,"o":"m 550 -200 l 0 -200 l 0 -130 l 550 -130 z"},"v":{"x_min":0,"x_max":550,"ha":550,"o":"m 32 490 l 129 490 l 249 166 l 275 87 l 302 168 l 421 490 l 514 490 l 322 0 l 224 0 z"},"O":{"x_min":0,"x_max":550,"ha":550,"o":"m 523 323 q 523 237 503 175 q 482 112 448 72 q 414 31 367 11 q 321 -9 270 -9 q 208 -9 163 13 q 117 36 87 78 q 57 120 42 180 q 28 240 28 316 q 28 401 48 463 q 68 526 102 567 q 137 607 183 627 q 229 647 280 647 q 341 647 387 625 q 433 602 463 560 q 493 519 508 458 q 523 398 523 323 z m 433 317 q 433 373 424 420 q 416 466 396 500 q 377 534 347 552 q 317 571 275 571 q 234 571 204 551 q 175 531 156 497 q 137 463 127 418 q 118 372 118 321 q 118 264 127 218 q 136 171 155 137 q 173 104 203 85 q 233 67 275 67 q 316 67 346 87 q 375 106 395 140 q 414 174 423 220 q 433 265 433 317 z"},"(":{"x_min":0,"x_max":550,"ha":550,"o":"m 372 -205 q 146 3 146 256 q 146 315 158 374 q 170 433 197 492 q 224 551 267 610 q 311 669 374 727 l 423 677 q 233 490 233 262 q 233 149 281 44 q 329 -60 423 -153 z"},"C":{"x_min":0,"x_max":550,"ha":550,"o":"m 486 24 q 409 -8 325 -8 q 190 -8 117 73 q 45 154 45 312 q 45 389 65 451 q 85 513 122 556 q 159 599 212 623 q 265 646 330 646 q 375 646 413 638 q 451 631 486 615 l 486 530 q 451 549 414 559 q 377 569 333 569 q 288 569 252 552 q 215 535 190 503 q 165 471 151 425 q 137 379 137 320 q 137 196 188 133 q 238 70 335 70 q 376 70 414 79 q 451 89 486 106 z"},"W":{"x_min":0,"x_max":550,"ha":550,"o":"m 528 638 l 485 0 l 372 0 l 293 227 l 271 300 l 248 221 l 175 0 l 66 0 l 22 638 l 104 638 l 129 204 l 136 85 l 167 186 l 244 423 l 304 423 l 393 169 l 423 85 l 425 173 l 450 638 z"},"A":{"x_min":0,"x_max":550,"ha":550,"o":"m 545 0 l 450 0 l 406 139 l 140 139 l 95 0 l 5 0 l 217 638 l 336 638 z m 381 217 l 273 558 l 165 217 z"},"f":{"x_min":0,"x_max":550,"ha":550,"o":"m 513 611 q 446 625 398 625 q 283 625 283 505 l 283 419 l 498 419 l 498 348 l 283 348 l 283 0 l 197 0 l 197 348 l 39 348 l 39 419 l 197 419 l 197 500 q 197 696 401 696 q 452 696 513 684 z m 0 490 z"},"Q":{"x_min":0,"x_max":550,"ha":550,"o":"m 228 -6 q 177 1 140 26 q 102 51 77 92 q 52 133 40 188 q 28 244 28 311 q 28 398 48 461 q 68 525 102 566 q 137 607 183 627 q 229 647 280 647 q 341 647 387 625 q 433 603 463 561 q 493 519 508 460 q 523 400 523 326 q 523 248 506 189 q 490 130 461 89 q 432 48 393 25 q 354 1 309 -6 q 316 -49 343 -75 q 370 -101 419 -101 q 442 -101 465 -93 q 488 -85 511 -67 l 550 -127 q 518 -153 483 -165 q 449 -176 413 -176 q 374 -176 341 -165 q 309 -154 284 -133 q 260 -112 246 -80 q 231 -48 228 -6 z m 433 316 q 433 373 424 419 q 416 466 396 499 q 377 533 347 551 q 317 570 275 570 q 234 570 204 550 q 175 531 156 497 q 137 464 127 419 q 118 375 118 324 q 118 266 127 219 q 136 172 155 138 q 173 104 203 86 q 233 68 275 68 q 316 68 346 87 q 375 107 395 141 q 414 174 423 219 q 433 265 433 316 z"},"w":{"x_min":0,"x_max":550,"ha":550,"o":"m 532 490 l 461 0 l 358 0 l 287 205 l 273 255 l 257 202 l 189 0 l 89 0 l 18 490 l 101 490 l 142 157 l 151 83 l 172 148 l 243 368 l 304 368 l 381 151 l 403 86 l 410 155 l 448 490 z"},"-":{"x_min":0,"x_max":550,"ha":550,"o":"m 421 226 l 129 226 l 129 306 l 421 306 z"},"E":{"x_min":0,"x_max":550,"ha":550,"o":"m 461 0 l 98 0 l 98 638 l 461 638 l 461 565 l 185 565 l 185 367 l 450 367 l 450 294 l 185 294 l 185 74 l 461 74 z"},"s":{"x_min":0,"x_max":550,"ha":550,"o":"m 466 134 q 466 108 458 87 q 449 67 434 51 q 418 35 398 24 q 378 13 356 5 q 333 -2 309 -5 q 285 -9 262 -9 q 212 -9 171 -4 q 129 0 89 10 l 89 88 q 132 76 174 69 q 217 63 259 63 q 320 63 349 80 q 378 96 378 127 q 378 140 374 151 q 369 161 357 171 q 345 180 319 190 q 293 201 249 214 q 216 224 188 236 q 160 249 139 266 q 119 283 107 306 q 95 329 95 360 q 95 380 105 405 q 114 429 137 450 q 160 471 199 485 q 238 499 297 499 q 326 499 361 496 q 396 493 434 485 l 434 409 q 394 419 358 424 q 322 428 296 428 q 264 428 242 423 q 221 418 207 410 q 194 401 188 390 q 182 378 182 365 q 182 352 187 341 q 192 331 206 321 q 220 311 245 301 q 270 291 310 279 q 354 266 383 252 q 413 238 432 221 q 450 204 458 183 q 466 161 466 134 z"},">":{"x_min":0,"x_max":550,"ha":550,"o":"m 102 486 l 155 540 l 483 266 l 155 -8 l 102 46 l 368 265 z"},"l":{"x_min":0,"x_max":550,"ha":550,"o":"m 245 620 l 100 620 l 100 690 l 331 690 l 331 71 l 477 71 l 477 0 l 84 0 l 84 71 l 245 71 z"},"8":{"x_min":0,"x_max":550,"ha":550,"o":"m 492 160 q 492 120 476 88 q 459 57 429 35 q 399 14 359 2 q 318 -9 271 -9 q 219 -9 179 3 q 139 15 112 36 q 85 57 72 85 q 58 114 58 149 q 58 208 91 250 q 124 292 192 327 q 129 359 101 398 q 72 437 72 487 q 72 518 84 546 q 97 575 123 598 q 148 620 187 634 q 226 647 278 647 q 327 647 365 636 q 402 626 427 606 q 453 587 465 559 q 478 531 478 497 q 478 441 447 402 q 416 363 359 334 q 387 320 412 303 q 436 286 454 265 q 472 244 482 218 q 492 192 492 160 z m 391 490 q 391 534 361 555 q 330 576 275 576 q 220 576 190 555 q 159 534 159 492 q 159 473 167 457 q 174 441 189 427 q 205 413 228 399 q 250 385 282 371 q 337 397 364 425 q 391 453 391 490 z m 400 154 q 400 172 394 189 q 388 206 373 223 q 358 239 333 256 q 307 272 268 290 q 235 274 212 258 q 189 242 176 226 q 162 209 156 192 q 150 174 150 155 q 150 133 159 116 q 169 99 186 87 q 202 76 225 70 q 248 64 275 64 q 301 64 324 69 q 347 75 364 86 q 380 97 390 114 q 400 130 400 154 z"},"\\":{"x_min":0,"x_max":550,"ha":550,"o":"m 494 -105 l 413 -105 l 78 690 l 159 690 z"},"e":{"x_min":0,"x_max":550,"ha":550,"o":"m 492 271 q 492 253 492 241 q 491 229 490 218 l 146 218 q 146 143 188 102 q 230 62 309 62 q 331 62 352 64 q 374 65 394 68 q 414 71 432 75 q 450 79 466 83 l 466 13 q 431 3 387 -3 q 344 -9 297 -9 q 234 -9 188 8 q 143 25 114 58 q 85 90 71 137 q 57 185 57 244 q 57 296 72 342 q 87 388 115 423 q 144 458 186 479 q 227 499 280 499 q 331 499 371 483 q 410 467 437 437 q 464 408 478 365 q 492 323 492 271 z m 404 283 q 405 316 397 343 q 390 370 373 390 q 357 409 333 420 q 308 431 276 431 q 248 431 225 420 q 202 410 186 390 q 169 371 159 343 q 148 316 146 283 z"},"b":{"x_min":0,"x_max":550,"ha":550,"o":"m 497 254 q 497 193 480 145 q 463 97 432 63 q 401 30 357 12 q 312 -6 257 -6 q 213 -6 168 2 q 123 11 78 29 l 78 690 l 163 690 l 163 500 l 159 409 q 196 458 238 479 q 279 499 327 499 q 369 499 401 481 q 433 464 454 432 q 476 400 486 355 q 497 310 497 254 z m 410 250 q 410 289 405 321 q 399 353 387 376 q 375 399 355 412 q 336 425 310 425 q 294 425 277 420 q 261 415 243 403 q 225 391 205 371 q 186 351 163 322 l 163 84 q 188 74 214 69 q 240 63 263 63 q 292 63 319 72 q 346 82 366 103 q 386 125 398 161 q 410 197 410 250 z"},"%":{"x_min":0,"x_max":550,"ha":550,"o":"m 540 690 l 90 0 l 10 0 l 459 690 z m 280 553 q 280 521 271 494 q 261 467 244 448 q 227 428 202 416 q 177 405 147 405 q 117 405 94 414 q 70 423 53 442 q 36 460 27 487 q 18 514 18 549 q 18 580 27 607 q 37 634 54 654 q 71 674 96 686 q 121 697 151 697 q 181 697 204 688 q 228 678 245 660 q 262 642 271 615 q 280 588 280 553 z m 208 551 q 208 594 192 614 q 177 635 149 635 q 135 635 124 628 q 113 622 105 611 q 98 600 94 584 q 90 569 90 551 q 90 508 105 487 q 121 467 149 467 q 163 467 174 473 q 185 479 193 491 q 200 502 204 517 q 208 533 208 551 z m 532 141 q 532 109 523 83 q 513 56 496 36 q 479 16 454 4 q 429 -7 399 -7 q 369 -7 345 2 q 322 12 305 30 q 288 48 279 75 q 270 102 270 137 q 270 168 279 196 q 289 223 306 243 q 323 263 348 274 q 373 285 403 285 q 433 285 457 276 q 480 267 497 248 q 514 230 523 203 q 532 176 532 141 z m 460 139 q 460 182 445 203 q 429 223 401 223 q 387 223 376 217 q 365 210 357 199 q 350 188 346 173 q 342 157 342 139 q 342 96 357 76 q 373 55 401 55 q 415 55 426 62 q 437 68 445 79 q 453 90 457 106 q 460 121 460 139 z"},"m":{"x_min":0,"x_max":550,"ha":550,"o":"m 428 0 l 428 352 q 428 375 426 390 q 424 404 421 413 q 417 421 411 425 q 406 428 397 428 q 388 428 379 422 q 371 417 362 403 q 352 390 341 368 q 329 347 313 315 l 313 0 l 236 0 l 236 343 q 236 370 234 386 q 232 403 229 412 q 225 421 219 425 q 213 428 205 428 q 196 428 188 423 q 181 418 171 406 q 162 393 150 371 q 138 349 122 315 l 122 0 l 44 0 l 44 490 l 109 490 l 113 397 q 125 425 137 444 q 149 464 162 476 q 175 488 189 493 q 204 499 221 499 q 261 499 281 473 q 302 447 302 393 q 313 418 325 438 q 336 458 349 471 q 362 485 377 492 q 393 499 414 499 q 506 499 506 357 l 506 0 z"},"#":{"x_min":0,"x_max":550,"ha":550,"o":"m 503 179 l 394 179 l 376 0 l 304 0 l 322 179 l 197 179 l 179 0 l 107 0 l 125 179 l 21 179 l 21 243 l 131 243 l 149 414 l 46 414 l 46 477 l 155 477 l 172 638 l 243 638 l 227 477 l 352 477 l 369 638 l 441 638 l 424 477 l 529 477 l 529 414 l 417 414 l 400 243 l 503 243 z m 329 243 l 346 414 l 221 414 l 204 243 z"},",":{"x_min":0,"x_max":550,"ha":550,"o":"m 116 -100 q 141 -101 165 -96 q 188 -90 206 -80 q 224 -69 234 -54 q 245 -38 245 -18 q 245 2 238 15 q 231 28 222 39 q 213 49 206 62 q 199 74 199 94 q 199 104 203 116 q 207 127 215 136 q 223 146 236 151 q 248 157 265 157 q 282 157 298 150 q 314 143 326 128 q 338 114 345 92 q 352 70 352 40 q 352 0 337 -38 q 322 -75 293 -104 q 263 -133 219 -150 q 175 -167 116 -167 z"},"n":{"x_min":0,"x_max":550,"ha":550,"o":"m 78 490 l 154 490 l 157 411 q 179 437 199 453 q 219 470 238 480 q 257 491 277 495 q 297 499 319 499 q 395 499 433 454 q 472 410 472 320 l 472 0 l 387 0 l 387 313 q 387 371 366 398 q 344 426 302 426 q 286 426 271 421 q 256 417 240 405 q 224 394 205 374 q 187 354 163 325 l 163 0 l 78 0 z"},"h":{"x_min":0,"x_max":550,"ha":550,"o":"m 472 0 l 387 0 l 387 313 q 387 370 366 398 q 345 426 305 426 q 288 426 273 421 q 258 417 242 405 q 226 394 207 374 q 188 354 163 325 l 163 0 l 78 0 l 78 690 l 163 690 l 163 490 l 160 413 q 180 437 199 453 q 219 470 238 480 q 257 490 277 495 q 297 499 319 499 q 392 499 432 454 q 472 410 472 320 z"},"z":{"x_min":0,"x_max":550,"ha":550,"o":"m 475 0 l 80 0 l 80 61 l 357 419 l 87 419 l 87 490 l 459 490 l 459 424 l 187 72 l 475 72 z"},"B":{"x_min":0,"x_max":550,"ha":550,"o":"m 496 191 q 496 145 478 110 q 460 74 427 50 q 395 25 348 13 q 301 0 244 0 l 77 0 l 77 638 l 260 638 q 473 638 473 483 q 473 431 448 394 q 424 357 368 339 q 394 334 417 322 q 440 311 458 292 q 476 273 486 248 q 496 223 496 191 z m 383 471 q 383 491 377 508 q 371 525 356 538 q 342 550 317 558 q 292 565 254 565 l 164 565 l 164 365 l 251 365 q 281 365 305 372 q 329 378 346 391 q 364 404 373 424 q 383 444 383 471 z m 404 188 q 404 212 394 232 q 383 251 364 265 q 344 278 316 286 q 288 293 253 293 l 164 293 l 164 73 l 256 73 q 331 73 367 101 q 404 129 404 188 z"},"K":{"x_min":0,"x_max":550,"ha":550,"o":"m 511 0 l 402 0 l 163 313 l 163 0 l 76 0 l 76 638 l 163 638 l 163 342 l 397 638 l 500 638 l 248 335 z"},"R":{"x_min":0,"x_max":550,"ha":550,"o":"m 513 0 l 415 0 l 320 204 q 309 228 298 243 q 287 258 274 267 q 261 276 245 280 q 230 284 211 284 l 170 284 l 170 0 l 83 0 l 83 638 l 254 638 q 310 638 350 626 q 390 614 415 592 q 441 570 453 539 q 465 508 465 470 q 465 440 456 414 q 447 387 430 365 q 413 344 387 328 q 361 312 328 304 q 355 295 374 272 q 393 249 412 210 z m 374 463 q 374 514 342 540 q 310 565 252 565 l 170 565 l 170 354 l 240 354 q 271 354 296 361 q 320 368 338 382 q 355 396 365 416 q 374 437 374 463 z"},"T":{"x_min":0,"x_max":550,"ha":550,"o":"m 508 564 l 319 564 l 319 0 l 231 0 l 231 564 l 42 564 l 42 638 l 508 638 z"},"P":{"x_min":0,"x_max":550,"ha":550,"o":"m 496 443 q 496 404 481 365 q 467 327 436 297 q 405 267 357 248 q 310 229 243 229 l 164 229 l 164 0 l 77 0 l 77 638 l 257 638 q 304 638 348 628 q 391 617 424 594 q 457 570 477 533 q 496 496 496 443 z m 406 439 q 406 500 365 533 q 325 566 253 566 l 164 566 l 164 303 l 245 303 q 322 303 364 337 q 406 371 406 439 z"},"|":{"x_min":0,"x_max":550,"ha":550,"o":"m 315 -200 l 235 -200 l 235 800 l 315 800 z"},"t":{"x_min":0,"x_max":550,"ha":550,"o":"m 473 7 q 444 0 414 -4 q 383 -7 351 -7 q 259 -7 213 35 q 168 77 168 163 l 168 419 l 31 419 l 31 490 l 168 490 l 168 625 l 253 647 l 253 490 l 473 490 l 473 419 l 253 419 l 253 170 q 253 117 281 91 q 309 65 364 65 q 387 65 415 69 q 443 72 473 80 z"},"M":{"x_min":0,"x_max":550,"ha":550,"o":"m 526 0 l 441 0 l 428 398 l 423 551 l 393 462 l 299 208 l 239 208 l 149 452 l 119 551 l 117 391 l 106 0 l 24 0 l 55 638 l 158 638 l 244 398 l 272 317 l 299 398 l 389 638 l 495 638 z"},"g":{"x_min":0,"x_max":550,"ha":550,"o":"m 431 421 q 445 404 452 381 q 460 358 460 332 q 460 294 446 262 q 432 231 407 208 q 381 186 346 174 q 311 161 268 161 q 237 161 210 168 q 184 174 168 184 q 159 170 152 158 q 146 146 146 131 q 146 112 164 100 q 182 88 211 87 l 340 82 q 376 81 407 73 q 438 64 461 49 q 483 33 495 10 q 508 -13 508 -43 q 508 -76 494 -105 q 479 -134 450 -156 q 420 -179 375 -192 q 330 -205 267 -205 q 208 -205 166 -196 q 124 -186 97 -169 q 70 -152 58 -129 q 46 -106 46 -78 q 46 -42 62 -16 q 79 11 114 36 q 101 42 92 51 q 83 60 77 70 q 71 81 68 92 q 65 104 65 115 q 65 147 80 173 q 95 200 115 223 q 106 234 99 245 q 92 256 87 268 q 82 281 79 295 q 76 310 76 328 q 76 366 90 398 q 104 429 129 452 q 154 474 190 487 q 225 499 268 499 q 286 499 303 497 q 319 494 332 490 l 510 490 l 510 421 z m 136 -71 q 136 -105 172 -121 q 208 -137 273 -137 q 313 -137 341 -130 q 369 -123 385 -111 q 402 -99 410 -83 q 417 -68 417 -52 q 417 -22 393 -8 q 368 6 318 9 l 190 13 q 174 2 163 -8 q 153 -18 147 -29 q 141 -39 139 -50 q 136 -60 136 -71 z m 162 330 q 162 307 170 287 q 178 268 192 254 q 206 240 225 233 q 245 225 268 225 q 293 225 313 234 q 333 242 346 257 q 360 271 367 291 q 374 310 374 330 q 374 354 366 373 q 358 393 344 406 q 330 420 311 427 q 292 435 268 435 q 243 435 223 426 q 203 417 190 403 q 176 389 169 370 q 162 351 162 330 z"},"j":{"x_min":0,"x_max":550,"ha":550,"o":"m 410 490 l 410 9 q 410 -42 396 -82 q 381 -122 354 -149 q 326 -177 286 -191 q 247 -205 197 -205 q 161 -205 126 -198 q 92 -192 64 -180 l 64 -99 q 79 -107 96 -113 q 114 -120 132 -124 q 150 -128 169 -131 q 188 -133 205 -133 q 261 -133 292 -98 q 324 -62 324 6 l 324 420 l 84 420 l 84 490 z m 359 696 q 373 696 385 691 q 397 686 406 676 q 416 667 421 655 q 426 643 426 629 q 426 615 421 603 q 416 591 406 582 q 397 572 385 567 q 373 562 359 562 q 345 562 333 567 q 320 572 311 582 q 302 591 297 603 q 292 615 292 629 q 292 643 297 655 q 302 667 311 676 q 320 686 333 691 q 345 696 359 696 z"},"i":{"x_min":0,"x_max":550,"ha":550,"o":"m 245 420 l 100 420 l 100 490 l 331 490 l 331 71 l 477 71 l 477 0 l 84 0 l 84 71 l 245 71 z m 275 696 q 289 696 301 691 q 313 686 323 676 q 332 667 337 655 q 342 643 342 629 q 342 615 337 603 q 332 591 323 582 q 313 572 301 567 q 289 562 275 562 q 261 562 249 567 q 236 572 227 582 q 218 591 213 603 q 208 615 208 629 q 208 643 213 655 q 218 667 227 676 q 236 686 249 691 q 261 696 275 696 z"},"y":{"x_min":0,"x_max":550,"ha":550,"o":"m 514 490 l 347 52 q 321 -15 294 -63 q 266 -112 233 -143 q 201 -174 162 -188 q 123 -203 74 -203 q 62 -203 51 -203 q 41 -202 29 -201 l 29 -124 q 40 -125 52 -127 q 65 -128 79 -128 q 103 -128 123 -121 q 143 -114 161 -99 q 179 -83 196 -59 q 212 -35 228 0 l 32 490 l 129 490 l 253 166 l 278 90 l 306 168 l 421 490 z"},"@":{"x_min":0,"x_max":550,"ha":550,"o":"m 381 199 q 376 168 376 147 q 375 127 379 115 q 382 104 389 99 q 396 94 406 94 q 419 94 432 109 q 444 123 453 153 q 463 183 469 229 q 474 275 474 338 q 474 408 465 463 q 457 519 438 557 q 418 596 388 616 q 357 636 314 636 q 281 636 250 619 q 219 603 192 572 q 166 542 144 499 q 122 456 107 404 q 91 353 83 293 q 74 233 74 169 q 74 12 122 -66 q 169 -143 255 -143 q 298 -143 336 -133 q 374 -123 414 -103 l 414 -166 q 374 -185 334 -194 q 294 -203 250 -203 q 125 -203 66 -110 q 6 -17 5 168 q 4 242 15 309 q 25 377 44 436 q 63 494 91 542 q 119 590 154 624 q 188 658 229 677 q 271 696 317 696 q 375 696 418 672 q 460 648 488 604 q 516 559 530 494 q 543 429 543 346 q 542 262 532 202 q 521 143 502 104 q 483 66 456 49 q 429 31 396 31 q 358 31 339 50 q 321 70 321 103 q 302 65 281 48 q 259 31 229 31 q 183 31 160 65 q 137 100 137 174 q 137 201 140 231 q 144 262 151 293 q 159 324 171 353 q 183 381 201 403 q 219 425 243 438 q 268 451 299 451 q 317 451 333 447 q 350 442 357 438 l 420 453 z m 331 373 q 327 379 318 384 q 309 388 295 388 q 280 388 269 378 q 257 368 248 351 q 239 333 233 312 q 227 290 222 267 q 218 244 217 222 q 215 200 215 182 q 215 135 221 115 q 227 94 243 94 q 249 94 255 97 q 261 99 267 106 q 274 113 282 126 q 290 139 299 159 z"},".":{"x_min":0,"x_max":550,"ha":550,"o":"m 271 154 q 288 154 302 147 q 317 141 328 130 q 339 119 346 104 q 352 89 352 72 q 352 55 346 41 q 339 26 328 15 q 317 4 302 -2 q 288 -9 271 -9 q 254 -9 239 -2 q 225 4 214 15 q 203 26 196 41 q 190 55 190 72 q 190 89 196 104 q 203 119 214 130 q 225 141 239 147 q 254 154 271 154 z"},"p":{"x_min":0,"x_max":550,"ha":550,"o":"m 497 254 q 497 188 479 140 q 460 91 428 59 q 396 26 352 10 q 308 -6 257 -6 q 233 -6 210 -3 q 187 -1 163 5 l 163 -200 l 78 -200 l 78 490 l 154 490 l 159 408 q 196 458 237 479 q 279 499 327 499 q 369 499 401 481 q 433 464 454 432 q 476 400 486 355 q 497 310 497 254 z m 410 250 q 410 289 405 321 q 399 353 387 376 q 375 399 355 412 q 336 425 310 425 q 294 425 277 420 q 261 415 243 403 q 225 391 205 371 q 186 351 163 322 l 163 84 q 187 74 212 69 q 238 63 263 63 q 332 63 371 110 q 410 156 410 250 z"},"X":{"x_min":0,"x_max":550,"ha":550,"o":"m 538 0 l 428 0 l 273 258 l 117 0 l 9 0 l 221 326 l 26 638 l 129 638 l 275 398 l 422 638 l 522 638 l 326 330 z"},"*":{"x_min":0,"x_max":550,"ha":550,"o":"m 469 410 l 436 352 l 299 443 l 310 276 l 240 276 l 251 443 l 111 352 l 80 409 l 230 483 l 80 558 l 114 615 l 252 523 l 240 690 l 310 690 l 298 523 l 436 616 l 470 556 l 320 482 z"},"Y":{"x_min":0,"x_max":550,"ha":550,"o":"m 550 638 l 319 228 l 319 0 l 231 0 l 231 230 l 0 638 l 105 638 l 232 405 l 279 311 l 322 396 l 450 638 z"},"c":{"x_min":0,"x_max":550,"ha":550,"o":"m 459 18 q 426 5 391 -1 q 356 -7 319 -7 q 203 -7 140 56 q 77 119 77 240 q 77 298 95 346 q 113 393 146 427 q 179 460 224 479 q 270 497 324 497 q 362 497 396 492 q 429 486 459 474 l 459 393 q 427 410 394 417 q 361 425 326 425 q 293 425 264 412 q 235 400 213 376 q 191 353 179 319 q 166 286 166 243 q 166 154 209 110 q 252 66 329 66 q 364 66 396 74 q 429 82 459 97 z"},"!":{"x_min":0,"x_max":550,"ha":550,"o":"m 325 690 l 312 187 l 237 187 l 222 690 z m 274 120 q 287 120 299 115 q 311 110 319 101 q 328 92 333 80 q 338 68 338 55 q 338 42 333 30 q 328 19 319 10 q 311 1 299 -4 q 287 -9 274 -9 q 260 -9 249 -4 q 237 1 228 10 q 219 19 214 30 q 209 42 209 55 q 209 68 214 80 q 219 92 228 101 q 237 110 249 115 q 260 120 274 120 z"},"/":{"x_min":0,"x_max":550,"ha":550,"o":"m 472 690 l 137 -105 l 56 -105 l 391 690 z"},"[":{"x_min":0,"x_max":550,"ha":550,"o":"m 409 -200 l 168 -200 l 168 707 l 409 707 l 409 639 l 250 639 l 250 -132 l 409 -132 z"},"6":{"x_min":0,"x_max":550,"ha":550,"o":"m 500 202 q 500 158 484 120 q 468 81 439 52 q 410 24 368 8 q 327 -9 277 -9 q 224 -9 184 8 q 143 25 116 60 q 88 95 74 148 q 60 201 60 274 q 60 323 66 369 q 73 415 87 455 q 102 496 126 529 q 151 563 187 587 q 224 611 273 625 q 322 638 387 638 l 450 638 l 450 564 l 382 564 q 325 564 283 550 q 241 537 212 512 q 184 487 169 452 q 154 417 150 373 l 148 353 q 179 371 219 382 q 259 393 306 393 q 354 393 391 379 q 427 365 451 340 q 476 314 488 279 q 500 244 500 202 z m 411 197 q 411 226 404 250 q 397 273 382 290 q 367 306 344 315 q 320 324 288 324 q 270 324 250 321 q 231 317 213 311 q 195 305 178 297 q 162 290 148 281 q 148 218 157 176 q 166 133 183 108 q 200 83 226 72 q 251 61 284 61 q 312 61 335 70 q 358 79 375 97 q 392 114 402 139 q 411 165 411 197 z"},"r":{"x_min":0,"x_max":550,"ha":550,"o":"m 98 490 l 176 490 l 178 400 q 222 452 264 476 q 306 499 349 499 q 425 499 465 450 q 504 400 501 303 l 415 303 q 417 368 396 397 q 376 426 337 426 q 320 426 302 420 q 285 414 267 400 q 249 387 228 366 q 208 345 184 315 l 184 0 l 98 0 z"},"2":{"x_min":0,"x_max":550,"ha":550,"o":"m 492 0 l 72 0 l 72 76 l 237 240 q 277 280 303 310 q 328 339 342 363 q 356 387 361 409 q 366 430 366 455 q 366 479 360 500 q 354 521 340 537 q 327 553 306 562 q 285 572 256 572 q 215 572 182 554 q 149 536 121 507 l 74 563 q 110 601 157 624 q 205 647 267 647 q 310 647 344 634 q 379 622 405 598 q 430 574 444 539 q 458 504 458 461 q 458 424 448 393 q 438 362 419 331 q 399 300 369 267 q 339 233 298 194 l 182 81 l 492 81 z"},"{":{"x_min":0,"x_max":550,"ha":550,"o":"m 438 -200 l 402 -200 q 308 -200 262 -156 q 216 -112 216 -22 l 216 146 q 216 170 210 189 q 205 208 192 220 q 178 233 156 240 q 134 247 100 247 l 79 247 l 79 315 l 100 315 q 136 315 158 321 q 181 327 193 339 q 206 351 211 369 q 216 388 216 413 l 216 529 q 216 570 226 603 q 235 636 258 659 q 280 682 315 695 q 351 707 402 707 l 438 707 l 438 639 l 409 639 q 296 639 296 529 l 296 415 q 296 296 193 281 q 297 271 297 147 l 297 -20 q 297 -132 409 -132 l 438 -132 z"},"9":{"x_min":0,"x_max":550,"ha":550,"o":"m 489 355 q 489 262 466 195 q 444 127 400 84 q 356 41 291 21 q 226 0 141 0 l 88 0 l 88 74 l 147 74 q 210 74 256 87 q 302 100 332 124 q 363 149 379 184 q 395 220 399 265 l 401 285 q 370 267 330 256 q 290 245 243 245 q 195 245 158 259 q 122 273 97 299 q 73 324 61 359 q 49 394 49 435 q 49 479 65 518 q 81 557 110 585 q 139 614 180 630 q 220 647 269 647 q 316 647 357 631 q 397 616 426 581 q 456 546 472 490 q 489 435 489 355 z m 265 577 q 238 577 215 568 q 191 559 175 542 q 158 524 148 499 q 138 474 138 441 q 138 411 145 388 q 152 364 167 348 q 182 332 206 323 q 229 314 261 314 q 279 314 299 317 q 318 321 336 327 q 354 333 371 340 q 388 348 401 357 q 401 420 392 462 q 382 504 365 530 q 347 556 322 566 q 297 577 265 577 z"}," ":{"x_min":0,"x_max":550,"ha":550,"o":""},"I":{"x_min":0,"x_max":550,"ha":550,"o":"m 231 565 l 84 565 l 84 638 l 466 638 l 466 565 l 319 565 l 319 74 l 466 74 l 466 0 l 84 0 l 84 74 l 231 74 z"},"H":{"x_min":0,"x_max":550,"ha":550,"o":"m 496 0 l 409 0 l 409 293 l 141 293 l 141 0 l 54 0 l 54 638 l 141 638 l 141 368 l 409 368 l 409 638 l 496 638 z"},"4":{"x_min":0,"x_max":550,"ha":550,"o":"m 524 141 l 415 141 l 415 0 l 328 0 l 328 141 l 21 141 l 21 216 l 293 638 l 415 638 l 415 216 l 524 216 z m 328 556 l 106 216 l 328 216 z"},"~":{"x_min":0,"x_max":550,"ha":550,"o":"m 518 340 q 519 303 510 271 q 502 240 484 217 q 467 194 441 181 q 415 168 380 168 q 353 168 332 177 q 310 186 292 200 q 273 213 258 229 q 243 246 228 259 q 213 273 198 282 q 184 291 167 291 q 138 291 124 268 q 110 245 110 196 l 32 196 q 31 233 40 264 q 48 296 66 319 q 83 342 109 355 q 135 368 170 368 q 197 368 218 359 q 240 350 258 336 q 276 323 292 307 q 307 291 322 277 q 337 263 352 254 q 366 245 383 245 q 414 245 427 268 q 440 290 440 340 z"},"D":{"x_min":0,"x_max":550,"ha":550,"o":"m 514 326 q 514 280 507 238 q 500 196 484 160 q 469 124 444 94 q 419 65 383 44 q 347 23 299 11 q 251 0 190 0 l 53 0 l 53 638 l 218 638 q 367 638 441 561 q 514 484 514 326 z m 423 320 q 423 388 410 435 q 397 481 372 510 q 346 539 307 552 q 268 565 215 565 l 140 565 l 140 75 l 205 75 q 423 75 423 320 z"},"^":{"x_min":0,"x_max":550,"ha":550,"o":"m 495 326 l 410 326 l 269 571 l 136 326 l 59 326 l 238 638 l 307 638 z"},"0":{"x_min":0,"x_max":550,"ha":550,"o":"m 507 319 q 507 246 492 185 q 478 125 448 82 q 418 39 374 15 q 330 -9 270 -9 q 219 -9 177 10 q 135 30 105 70 q 75 110 59 172 q 43 234 43 319 q 43 392 58 453 q 73 513 102 556 q 132 600 176 623 q 221 647 280 647 q 331 647 373 628 q 415 608 445 568 q 475 528 491 466 q 507 404 507 319 z m 421 316 q 421 333 420 349 q 418 365 417 381 l 147 180 q 154 155 166 133 q 177 112 193 96 q 208 81 229 73 q 249 64 275 64 q 308 64 335 80 q 362 96 381 128 q 400 160 411 207 q 421 254 421 316 z m 129 322 q 129 307 129 292 q 129 276 131 262 l 401 462 q 394 487 382 507 q 371 528 355 543 q 340 558 320 566 q 300 574 275 574 q 242 574 215 558 q 188 542 168 510 q 149 478 139 431 q 129 384 129 322 z"},"F":{"x_min":0,"x_max":550,"ha":550,"o":"m 460 564 l 189 564 l 189 357 l 446 357 l 446 284 l 189 284 l 189 0 l 100 0 l 100 638 l 460 638 z"},"`":{"x_min":0,"x_max":550,"ha":550,"o":"m 326 572 l 241 572 l 85 690 l 208 690 z m 0 490 z"},"k":{"x_min":0,"x_max":550,"ha":550,"o":"m 519 0 l 402 0 l 174 263 l 174 0 l 89 0 l 89 690 l 174 690 l 174 266 l 394 490 l 506 490 l 276 264 z"},"u":{"x_min":0,"x_max":550,"ha":550,"o":"m 472 0 l 396 0 l 393 79 q 371 54 351 37 q 332 20 312 10 q 292 0 273 -5 q 253 -9 231 -9 q 155 -9 117 36 q 78 80 78 170 l 78 490 l 163 490 l 163 177 q 163 64 248 64 q 264 64 279 69 q 293 73 310 85 q 326 96 345 116 q 364 135 387 165 l 387 490 l 472 490 z"},"]":{"x_min":0,"x_max":550,"ha":550,"o":"m 381 -200 l 141 -200 l 141 -132 l 299 -132 l 299 639 l 141 639 l 141 707 l 381 707 z"},"U":{"x_min":0,"x_max":550,"ha":550,"o":"m 497 222 q 497 169 482 127 q 467 84 438 54 q 410 24 368 8 q 326 -9 272 -9 q 212 -9 171 7 q 129 22 103 51 q 77 80 65 120 q 53 160 53 209 l 53 638 l 140 638 l 140 216 q 140 178 147 150 q 154 122 170 103 q 187 83 212 74 q 238 64 275 64 q 344 64 377 104 q 410 144 410 217 l 410 638 l 497 638 z"},"o":{"x_min":0,"x_max":550,"ha":550,"o":"m 505 249 q 505 192 489 144 q 473 97 442 63 q 412 29 369 10 q 325 -9 270 -9 q 217 -9 176 8 q 134 24 105 56 q 76 87 60 134 q 45 181 45 242 q 45 299 61 346 q 77 394 107 427 q 138 461 181 480 q 225 499 280 499 q 333 499 374 483 q 416 466 445 435 q 474 403 490 356 q 505 310 505 249 z m 418 245 q 418 291 408 324 q 398 358 379 381 q 361 404 334 415 q 308 427 275 427 q 237 427 210 412 q 183 397 165 372 q 148 347 140 314 q 132 281 132 245 q 132 200 142 166 q 152 131 170 109 q 189 86 215 74 q 242 63 275 63 q 313 63 340 78 q 367 93 385 118 q 402 143 410 176 q 418 208 418 245 z"},"N":{"x_min":0,"x_max":550,"ha":550,"o":"m 492 0 l 379 0 l 193 398 l 139 526 l 139 204 l 139 0 l 58 0 l 58 638 l 170 638 l 347 261 l 411 115 l 411 457 l 411 638 l 492 638 z"},"+":{"x_min":0,"x_max":550,"ha":550,"o":"m 509 229 l 317 229 l 317 30 l 233 30 l 233 229 l 41 229 l 41 303 l 233 303 l 233 501 l 317 501 l 317 303 l 509 303 z"},"G":{"x_min":0,"x_max":550,"ha":550,"o":"m 491 529 q 456 548 418 558 q 380 569 336 569 q 285 569 246 551 q 206 533 179 500 q 152 467 137 420 q 123 374 123 318 q 123 259 135 213 q 146 167 171 134 q 196 102 235 85 q 274 68 328 68 q 337 68 348 69 q 359 70 370 72 q 380 73 390 76 q 400 78 408 81 l 408 284 l 278 284 l 278 356 l 494 356 l 494 30 q 474 21 452 13 q 430 6 406 1 q 383 -4 360 -6 q 337 -9 316 -9 q 250 -9 198 12 q 146 32 109 73 q 72 113 52 173 q 32 233 32 312 q 32 391 54 453 q 76 515 116 558 q 156 602 212 624 q 268 647 335 647 q 378 647 417 639 q 456 632 491 615 z"},"q":{"x_min":0,"x_max":550,"ha":550,"o":"m 53 235 q 53 288 67 335 q 81 382 110 418 q 139 454 185 475 q 230 496 293 496 q 318 496 342 492 q 367 488 394 480 l 469 499 l 469 -200 l 384 -200 l 384 -15 l 388 90 q 319 -9 223 -9 q 180 -9 148 9 q 117 26 95 59 q 74 91 64 136 q 53 181 53 235 z m 140 240 q 140 199 146 167 q 152 134 165 111 q 177 88 196 76 q 215 64 240 64 q 272 64 308 93 q 344 122 384 178 l 384 406 q 364 415 340 421 q 315 427 287 427 q 215 427 178 379 q 140 332 140 240 z"},"d":{"x_min":0,"x_max":550,"ha":550,"o":"m 53 235 q 53 297 70 346 q 87 395 119 428 q 150 461 195 479 q 239 496 293 496 q 316 496 339 493 q 362 490 384 484 l 384 690 l 469 690 l 469 0 l 393 0 l 390 93 q 354 41 313 16 q 271 -9 223 -9 q 181 -9 149 9 q 117 26 96 58 q 75 90 64 135 q 53 180 53 235 z m 140 240 q 140 151 166 108 q 192 64 240 64 q 272 64 308 93 q 344 122 384 178 l 384 406 q 363 416 337 421 q 312 426 287 426 q 218 426 179 381 q 140 336 140 240 z"},"1":{"x_min":0,"x_max":550,"ha":550,"o":"m 487 0 l 86 0 l 86 79 l 250 79 l 250 545 l 97 462 l 66 534 l 269 641 l 344 641 l 344 79 l 487 79 z"},"5":{"x_min":0,"x_max":550,"ha":550,"o":"m 476 204 q 476 157 456 118 q 435 79 399 51 q 363 22 314 7 q 266 -9 209 -9 q 195 -9 178 -8 q 162 -7 146 -6 q 130 -5 115 -3 q 99 -2 87 0 l 87 77 q 113 71 147 68 q 181 65 216 65 q 255 65 286 74 q 317 83 339 101 q 361 118 373 143 q 385 167 385 198 q 385 258 342 285 q 299 312 219 312 l 98 312 l 98 638 l 442 638 l 442 564 l 178 564 l 178 385 l 234 385 q 280 385 323 376 q 367 368 401 347 q 435 327 455 292 q 476 257 476 204 z"}}}
